<svg width="32" height="32" viewBox="0 0 32 32" fill="none" xmlns="http://www.w3.org/2000/svg">
<rect width="32" height="32" rx="16" fill="white"/>
<path d="M10 22V10H14.5C15.8333 10 16.9167 10.3333 17.75 11C18.5833 11.6667 19 12.6667 19 14C19 15.3333 18.5833 16.3333 17.75 17C16.9167 17.6667 15.8333 18 14.5 18H12V22H10ZM12 16H14.5C15.1667 16 15.6667 15.8333 16 15.5C16.3333 15.1667 16.5 14.6667 16.5 14C16.5 13.3333 16.3333 12.8333 16 12.5C15.6667 12.1667 15.1667 12 14.5 12H12V16ZM18 22L22 10H24L20 22H18Z" fill="black"/>
</svg>
